<?xml version="1.0" standalone="no"?>
<!DOCTYPE svg PUBLIC "-//W3C//DTD SVG 20010904//EN"
 "http://www.w3.org/TR/2001/REC-SVG-20010904/DTD/svg10.dtd">
<svg version="1.0" xmlns="http://www.w3.org/2000/svg"
 width="700.000000pt" height="700.000000pt" viewBox="0 0 700.000000 700.000000"
 preserveAspectRatio="xMidYMid meet">
<metadata>
Created by potrace 1.11, written by Peter Selinger 2001-2013
</metadata>
<g transform="translate(0.000000,700.000000) scale(0.100000,-0.100000)"
fill="#000000" stroke="none">
<path d="M9 6993 c-1 -5 -2 -1315 -2 -2911 -1 -1864 1 -2906 8 -2910 5 -3 103
-6 217 -6 l208 -1 0 2701 0 2700 3065 0 3065 0 0 -2697 c0 -2560 1 -2697 18
-2700 9 -3 105 -4 212 -4 l195 1 3 2917 2 2917 -3495 0 c-1922 0 -3495 -3
-3496 -7z"/>
<path d="M888 6132 c-15 -3 -16 -238 -15 -2634 l2 -2632 710 0 c391 -1 720 1
732 3 l23 3 0 2629 c0 2071 -3 2629 -13 2630 -35 3 -1426 4 -1439 1z"/>
<path d="M2791 6130 c-19 -5 -19 -24 -19 -2632 0 -2416 2 -2627 17 -2630 9 -2
338 -3 731 -3 l715 1 0 2634 0 2633 -712 1 c-391 1 -721 -1 -732 -4z"/>
<path d="M4694 6132 l-21 -3 0 -2630 c0 -1446 2 -2629 6 -2630 21 -3 1429 -4
1444 -1 16 4 17 138 17 2633 0 2096 -3 2629 -12 2630 -35 3 -1416 4 -1434 1z"/>
<path d="M1188 432 c-14 -3 -16 -28 -15 -215 l2 -212 2332 -3 2333 -2 -3 217
-2 217 -2316 0 c-1273 1 -2323 0 -2331 -2z"/>
</g>
</svg>
