<?xml version="1.0" encoding="UTF-8" standalone="no"?>
<!-- Created with Inkscape (http://www.inkscape.org/) -->

<svg
   xmlns:dc="http://purl.org/dc/elements/1.1/"
   xmlns:cc="http://creativecommons.org/ns#"
   xmlns:rdf="http://www.w3.org/1999/02/22-rdf-syntax-ns#"
   xmlns:svg="http://www.w3.org/2000/svg"
   xmlns="http://www.w3.org/2000/svg"
   xmlns:sodipodi="http://sodipodi.sourceforge.net/DTD/sodipodi-0.dtd"
   xmlns:inkscape="http://www.inkscape.org/namespaces/inkscape"
   id="svg2"
   height="880"
   width="900"
   version="1.1"
   inkscape:version="0.48.4 r9939"
   sodipodi:docname="logo.svg">
  <defs
     id="defs8" />
  <sodipodi:namedview
     pagecolor="#ffffff"
     bordercolor="#666666"
     borderopacity="1"
     objecttolerance="10"
     gridtolerance="10"
     guidetolerance="10"
     inkscape:pageopacity="0"
     inkscape:pageshadow="2"
     inkscape:window-width="1029"
     inkscape:window-height="911"
     id="namedview6"
     showgrid="false"
     fit-margin-top="150"
     fit-margin-left="150"
     fit-margin-right="150"
     fit-margin-bottom="150"
     inkscape:zoom="0.96731219"
     inkscape:cx="454.7542"
     inkscape:cy="403.36447"
     inkscape:window-x="0"
     inkscape:window-y="0"
     inkscape:window-maximized="0"
     inkscape:current-layer="svg2">
    <inkscape:grid
       type="xygrid"
       id="grid2983"
       empspacing="5"
       visible="true"
       enabled="true"
       snapvisiblegridlinesonly="true"
       originx="150px"
       originy="150px" />
  </sodipodi:namedview>
  <metadata
     id="metadata7">
    <rdf:RDF>
      <cc:Work
         rdf:about="">
        <dc:format>image/svg+xml</dc:format>
        <dc:type
           rdf:resource="http://purl.org/dc/dcmitype/StillImage" />
        <dc:title></dc:title>
      </cc:Work>
    </rdf:RDF>
  </metadata>
  <g
     id="layer1"
     transform="matrix(-1,0,0,-1,946.79,935.15)"
     style="fill:#ffffff">
    <path
       id="path3050"
       d="m 276.79,765.15 0,-20 220,0 220,0 0,20 0,20 -220,0 -220,0 0,-20 z m -20,-270 0,-230 70,0 70,0 0,230 0,230 -70,0 -70,0 0,-230 z m 170,0 0,-230 70,0 70,0 0,230 0,230 -70,0 -70,0 0,-230 z m 170,0 0,-230 70,0 70,0 0,230 0,230 -70,0 -70,0 0,-230 z m -400,-40 0,-250 300,0 300,0 0,250 0,250 -20,0 -20,0 0,-230 0,-230 -260,0 -260,0 0,230 0,230 -20,0 -20,0 0,-250 z"
       inkscape:connector-curvature="0"
       style="fill:#ffffff" />
  </g>
</svg>
