<?xml version="1.0" standalone="no"?>
<!DOCTYPE svg PUBLIC "-//W3C//DTD SVG 20010904//EN"
 "http://www.w3.org/TR/2001/REC-SVG-20010904/DTD/svg10.dtd">
<svg version="1.0" xmlns="http://www.w3.org/2000/svg"
 width="700.000000pt" height="700.000000pt" viewBox="0 0 700.000000 700.000000"
 preserveAspectRatio="xMidYMid meet">
<metadata>
Created by potrace 1.11, written by Peter Selinger 2001-2013
</metadata>
<g transform="translate(0.000000,700.000000) scale(0.100000,-0.100000)"
fill="#000000" stroke="none">
<path d="M3305 6984 c-22 -2 -92 -9 -155 -15 -329 -31 -708 -128 -1024 -264
-819 -350 -1481 -1012 -1831 -1831 -135 -316 -229 -678 -267 -1034 -15 -148
-15 -532 0 -680 113 -1061 671 -1987 1547 -2567 462 -306 967 -490 1535 -559
199 -25 581 -25 780 0 568 69 1073 253 1535 559 730 484 1253 1225 1460 2071
72 296 99 521 99 836 0 315 -27 540 -99 836 -207 846 -730 1587 -1460 2071
-459 304 -972 492 -1525 558 -129 15 -510 28 -595 19z m2425 -3254 l0 -1850
-140 0 -140 0 0 1710 0 1710 -1945 0 -1945 0 0 -1710 0 -1710 -140 0 -140 0 0
1850 0 1850 2225 0 2225 0 0 -1850z m-2970 -370 l0 -1670 -465 0 -465 0 0
1670 0 1670 465 0 465 0 0 -1670z m1210 0 l0 -1670 -465 0 -465 0 0 1670 0
1670 465 0 465 0 0 -1670z m1208 -2 l2 -1668 -470 0 -470 0 0 1670 0 1670 468
-2 467 -3 3 -1667z m-198 -2083 l0 -135 -1480 0 -1480 0 0 135 0 135 1480 0
1480 0 0 -135z"/>
</g>
</svg>
