<?xml version="1.0" encoding="UTF-8" standalone="no"?>
<!-- Created with Inkscape (http://www.inkscape.org/) -->

<svg
   xmlns:dc="http://purl.org/dc/elements/1.1/"
   xmlns:cc="http://creativecommons.org/ns#"
   xmlns:rdf="http://www.w3.org/1999/02/22-rdf-syntax-ns#"
   xmlns:svg="http://www.w3.org/2000/svg"
   xmlns="http://www.w3.org/2000/svg"
   version="1.1"
   width="1040.0574"
   height="1040.0225"
   id="svg2">
  <defs
     id="defs4" />
  <metadata
     id="metadata7">
    <rdf:RDF>
      <cc:Work
         rdf:about="">
        <dc:format>image/svg+xml</dc:format>
        <dc:type
           rdf:resource="http://purl.org/dc/dcmitype/StillImage" />
        <dc:title></dc:title>
      </cc:Work>
    </rdf:RDF>
  </metadata>
  <g
     transform="translate(984.95733,-436.16965)"
     id="layer1">
    <path
       d="m 469.38191,245.81422 a 413.79721,413.79721 0 1 1 -827.59442,0 413.79721,413.79721 0 1 1 827.59442,0 z"
       transform="matrix(1.115881,0,0,1.115881,-526.94722,681.8834)"
       id="path2996"
       style="fill:#ffffff;fill-opacity:0;fill-rule:evenodd;stroke:#000000;stroke-width:50.68192673;stroke-linecap:butt;stroke-linejoin:miter;stroke-miterlimit:4;stroke-opacity:1;stroke-dasharray:none" />
    <path
       d="m -436.44285,144.93828 -206.6233,-94.517785 -205.28817,97.383565 26.04164,-225.718037 -156.0548,-165.147483 222.71791,-44.98363 108.841,-199.45032 111.6056,197.91662 223.32225,41.8804 -153.74186,167.302835 z"
       transform="translate(73.426788,466.41354)"
       id="path3772"
       style="fill:#ffffff;fill-opacity:0;stroke:none" />
    <path
       d="m -557.90569,495.94536 -390.45072,410.06243 -159.89909,-543.17148 -159.8991,-543.17145 550.34981,133.109034 550.34984,133.109032 z"
       transform="matrix(0.43914342,0.12864572,-0.12864572,0.43914342,-90.89088,932.69471)"
       id="path3800"
       style="fill:#000000;fill-opacity:1;stroke:none" />
  </g>
</svg>
